<?xml version="1.0" encoding="UTF-8"?>
<svg xmlns="http://www.w3.org/2000/svg" viewBox="0 0 940 320">
  <defs>
    <style>
      .cls-1 {
        fill: none;
      }

      .cls-1, .cls-2, .cls-3 {
        stroke-width: 0px;
      }

      .cls-2 {
        fill: none;
      }

      .cls-3 {
        fill: #000;
      }
    </style>
  </defs>
  <g id="Fundos">
    <rect class="cls-2" x="-20" y="-17.04" width="1185" height="960"/>
  </g>
  <g id="Objetos">
    <g>
      <rect class="cls-1" width="940" height="320"/>
      <g>
        <g>
          <path class="cls-3" d="M407.73,230h-38.86c-15.92,0-28.87-12.95-28.87-28.87,0-13.55,9.22-25.12,22.42-28.14l57.33-13.13c-1.13-5.61-6.09-9.85-12.03-9.85h-57.73v-20h57.73c17.79,0,32.27,14.48,32.27,32.27v35.46c0,17.79-14.48,32.27-32.27,32.27ZM420,180.31l-53.11,12.17c-4.06.93-6.89,4.49-6.89,8.65,0,4.89,3.98,8.87,8.87,8.87h38.86c6.77,0,12.27-5.51,12.27-12.27v-17.41Z"/>
          <path class="cls-3" d="M775,230h-57.73c-17.79,0-32.27-14.48-32.27-32.27v-35.46c0-17.79,14.48-32.27,32.27-32.27h38.86c15.92,0,28.87,12.95,28.87,28.87,0,13.55-9.22,25.12-22.42,28.14l-57.33,13.13c1.13,5.61,6.09,9.85,12.03,9.85h57.73v20ZM717.27,150c-6.77,0-12.27,5.51-12.27,12.27v17.41l53.11-12.17c4.06-.93,6.89-4.49,6.89-8.65,0-4.89-3.98-8.87-8.87-8.87h-38.86Z"/>
          <path class="cls-3" d="M522.73,230h-35.46c-17.79,0-32.27-14.48-32.27-32.27v-67.73h20v67.73c0,6.77,5.51,12.27,12.27,12.27h35.46c6.77,0,12.27-5.51,12.27-12.27v-67.73h20v67.73c0,17.79-14.48,32.27-32.27,32.27Z"/>
          <path class="cls-3" d="M590,250h-20v-87.73c0-17.79,14.48-32.27,32.27-32.27h35.46c17.79,0,32.27,14.48,32.27,32.27v17.73c0,24.81-20.19,45-45,45h-35v25ZM590,205h35c13.79,0,25-11.21,25-25v-17.73c0-6.77-5.51-12.27-12.27-12.27h-35.46c-6.77,0-12.27,5.51-12.27,12.27v42.73Z"/>
          <path class="cls-3" d="M820,230h-20v-63.7c0-20.36,15.57-36.3,35.44-36.3h34.56v20h-34.56c-8.8,0-15.44,7.01-15.44,16.3v63.7Z"/>
        </g>
        <path class="cls-3" d="M313.64,238.2l-115.28-163.68c-1.79-2.72-4.86-4.52-8.36-4.52-3.31,0-6.24,1.61-8.06,4.09l-106.66,148.68c-7.17,10-9.01,26.92,7.22,27.22h0c7.5,0,12.58-.58,17.5-1.7l124.49-28.53c3.87-.9,6.76-4.37,6.76-8.51,0-4.83-3.92-8.75-8.75-8.75h-105l47.3-67.14c2.26-3.22,6-5.34,10.24-5.34,3.44,0,6.55,1.39,8.81,3.64l118.47,114.25c1.35,1.29,3.17,2.09,5.18,2.09,4.14,0,7.5-3.36,7.5-7.5,0-1.6-.51-3.08-1.36-4.3Z"/>
      </g>
    </g>
  </g>
</svg>