<?xml version="1.0" encoding="utf-8"?>
<!-- Generator: Adobe Illustrator 28.0.0, SVG Export Plug-In . SVG Version: 6.00 Build 0)  -->
<svg version="1.1" id="Layer_1" xmlns="http://www.w3.org/2000/svg" xmlns:xlink="http://www.w3.org/1999/xlink" x="0px" y="0px"
	 viewBox="0 0 680 167.2" style="enable-background:new 0 0 680 167.2;" xml:space="preserve">
<style type="text/css">
	.st0{fill:#333333;}
	.st1{fill:url(#SVGID_1_);}
	.st2{fill:url(#SVGID_00000125566719175149471180000012744288167085949591_);}
	.st3{fill:url(#SVGID_00000055697565093433411180000011983234325691992231_);}
	.st4{fill:url(#SVGID_00000138558265808837977600000002887965269044732295_);}
	.st5{fill:url(#SVGID_00000130621996539858416200000008473908705169701520_);}
	.st6{fill:#8619F5;}
	.st7{fill:url(#SVGID_00000143577322302862543850000014841228813007458691_);}
	.st8{fill:url(#SVGID_00000152262467214169318050000007032581139129714838_);}
	.st9{fill:url(#SVGID_00000031901517085453413520000001728279285027001252_);}
	.st10{fill:url(#SVGID_00000034083835319195901890000008577884233984068006_);}
</style>
<g id="Info">
</g>
<g id="Logo-02">
</g>
<g id="Logo-01">
</g>
<g id="HQ">
	<g>
		<g>
			<path class="st0" d="M229.4,111.4c0,1.1-0.5,2.1-1.4,2.9s-1.9,1.2-3.1,1.2c-0.8,0-1.5-0.2-2.2-0.7c-0.7-0.4-1.2-1.1-1.6-1.9
				l-5.9-13.4h-32.6l-5.9,13.4c-0.4,0.8-0.9,1.5-1.6,1.9c-0.7,0.4-1.5,0.7-2.2,0.7c-1.2,0-2.2-0.4-3.2-1.2c-0.9-0.8-1.4-1.7-1.4-2.9
				c0-0.5,0.1-1.1,0.4-1.8l25.1-55c0.4-0.9,1.1-1.7,2-2.2s1.9-0.8,2.9-0.8s2,0.3,2.9,0.8s1.6,1.3,2,2.2l25.1,55
				C229.2,110.3,229.4,110.9,229.4,111.4z M186,92.1h26.1L199,62.7L186,92.1z"/>
			<path class="st0" d="M274.7,71.7c0.8,0.8,1.2,1.8,1.2,3.2v36.3c0,1.2-0.4,2.3-1.2,3c-0.8,0.8-1.9,1.2-3.3,1.2
				c-1.2,0-2.3-0.4-3-1.1c-0.8-0.7-1.2-1.7-1.2-3v-3.4c-1.4,2.5-3.3,4.4-5.7,5.7c-2.4,1.3-5.1,2-8.1,2c-10.6,0-15.9-5.8-15.9-17.5
				V74.9c0-1.4,0.4-2.4,1.2-3.2c0.8-0.8,1.9-1.2,3.3-1.2c1.4,0,2.4,0.4,3.3,1.2c0.8,0.8,1.2,1.8,1.2,3.2V98c0,3.5,0.7,6.1,2.1,7.7
				c1.4,1.7,3.6,2.5,6.6,2.5c3.5,0,6.3-1.1,8.4-3.4s3.2-5.3,3.2-9V74.9c0-1.3,0.4-2.4,1.2-3.2c0.8-0.8,1.9-1.2,3.3-1.2
				S273.9,71,274.7,71.7z"/>
			<path class="st0" d="M315.6,74.2c0,1.3-0.3,2.3-1,2.9c-0.7,0.7-1.8,1-3.4,1.2l-2.7,0.3c-3.7,0.4-6.5,1.7-8.3,3.9
				c-1.8,2.3-2.7,5-2.7,8.2v20.4c0,1.4-0.4,2.5-1.2,3.2c-0.8,0.7-1.9,1.1-3.2,1.1c-1.3,0-2.4-0.4-3.3-1.1s-1.3-1.8-1.3-3.2V74.9
				c0-1.4,0.4-2.4,1.3-3.2c0.9-0.7,1.9-1.1,3.3-1.1c1.2,0,2.2,0.4,3,1.1s1.2,1.8,1.2,3.1V79c1.2-2.6,2.9-4.6,5.2-6
				c2.3-1.4,4.8-2.2,7.7-2.4l1.2-0.1C314.2,70.4,315.6,71.6,315.6,74.2z"/>
			<path class="st0" d="M327.8,112.8c-3.2-1.8-5.7-4.5-7.5-7.9s-2.6-7.4-2.6-11.9c0-4.6,0.9-8.6,2.6-12s4.2-6,7.5-7.9
				c3.2-1.8,7-2.8,11.3-2.8s8,0.9,11.3,2.8c3.2,1.8,5.7,4.5,7.5,7.9s2.6,7.4,2.6,12c0,4.5-0.9,8.5-2.6,11.9c-1.8,3.4-4.2,6-7.5,7.9
				c-3.2,1.8-7,2.8-11.3,2.8C334.8,115.6,331.1,114.7,327.8,112.8z M348.2,104.5c2.1-2.6,3.2-6.4,3.2-11.5c0-5-1.1-8.8-3.2-11.4
				s-5.2-4-9.1-4s-6.9,1.3-9.1,4c-2.1,2.6-3.2,6.5-3.2,11.4c0,5,1.1,8.9,3.2,11.5s5.2,3.9,9.1,3.9
				C343.1,108.4,346.1,107.1,348.2,104.5z"/>
			<path class="st0" d="M397.5,74.2c0,1.3-0.3,2.3-1,2.9c-0.7,0.7-1.8,1-3.4,1.2l-2.7,0.3c-3.7,0.4-6.5,1.7-8.3,3.9
				c-1.8,2.3-2.7,5-2.7,8.2v20.4c0,1.4-0.4,2.5-1.2,3.2c-0.8,0.7-1.9,1.1-3.2,1.1c-1.3,0-2.4-0.4-3.3-1.1s-1.3-1.8-1.3-3.2V74.9
				c0-1.4,0.4-2.4,1.3-3.2c0.9-0.7,1.9-1.1,3.3-1.1c1.2,0,2.2,0.4,3,1.1s1.2,1.8,1.2,3.1V79c1.2-2.6,2.9-4.6,5.2-6
				c2.3-1.4,4.8-2.2,7.7-2.4l1.2-0.1C396.1,70.4,397.5,71.6,397.5,74.2z"/>
			<path class="st0" d="M433.9,74.8c2.8,2.9,4.2,7.3,4.2,13.3v23.1c0,1.4-0.4,2.4-1.2,3.2c-0.8,0.7-1.8,1.1-3.2,1.1
				c-1.3,0-2.3-0.4-3.1-1.2c-0.8-0.8-1.2-1.8-1.2-3.1v-3.3c-1.1,2.5-2.8,4.4-5,5.7c-2.2,1.3-4.8,2-7.8,2c-2.8,0-5.5-0.6-7.8-1.7
				c-2.4-1.2-4.2-2.8-5.6-4.9c-1.3-2.1-2-4.4-2-6.9c0-3.1,0.8-5.6,2.5-7.4c1.6-1.8,4.3-3.1,8.1-3.9c3.8-0.8,9-1.2,15.5-1.2h2V87
				c0-3.3-0.7-5.7-2-7.2s-3.6-2.2-6.6-2.2c-2.1,0-4,0.3-5.9,0.8c-1.8,0.5-3.9,1.3-6.1,2.3c-1.6,0.9-2.7,1.3-3.4,1.3
				c-0.9,0-1.6-0.3-2.2-1s-0.8-1.5-0.8-2.5c0-0.9,0.3-1.7,0.8-2.4c0.5-0.7,1.3-1.4,2.4-2c2.1-1.1,4.5-2,7.3-2.7s5.5-1,8.1-1
				C426.8,70.4,431.1,71.9,433.9,74.8z M426.3,105.5c2.1-2.2,3.1-5.1,3.1-8.6v-2.3h-1.6c-4.6,0-8.2,0.2-10.7,0.6s-4.3,1.1-5.3,2.1
				c-1.1,1-1.6,2.4-1.6,4.2c0,2.1,0.8,3.9,2.3,5.3s3.5,2,5.8,2C421.6,108.9,424.2,107.8,426.3,105.5z"/>
			
				<linearGradient id="SVGID_1_" gradientUnits="userSpaceOnUse" x1="470" y1="112.9489" x2="470" y2="43.7335" gradientTransform="matrix(1 0 0 -1 0 170)">
				<stop  offset="0" style="stop-color:#5BAADB"/>
				<stop  offset="0.1283" style="stop-color:#5EA1DD"/>
				<stop  offset="0.3361" style="stop-color:#6589E1"/>
				<stop  offset="0.5974" style="stop-color:#7062E8"/>
				<stop  offset="0.8993" style="stop-color:#802DF1"/>
				<stop  offset="1" style="stop-color:#8619F5"/>
			</linearGradient>
			<path class="st1" d="M489.5,88v23.2c0,1.3-0.4,2.3-1.2,3.1c-0.8,0.8-1.9,1.2-3.3,1.2s-2.4-0.4-3.3-1.2c-0.8-0.8-1.2-1.8-1.2-3.1
				V88c0-3.6-0.7-6.2-2.2-7.8c-1.5-1.7-3.7-2.5-6.8-2.5c-3.6,0-6.5,1.1-8.7,3.4s-3.3,5.3-3.3,9.1v20.9c0,1.3-0.4,2.3-1.2,3.1
				c-0.8,0.8-1.9,1.2-3.3,1.2s-2.5-0.4-3.3-1.2c-0.8-0.8-1.2-1.8-1.2-3.1V56c0-1.3,0.4-2.3,1.3-3.1s2-1.2,3.3-1.2s2.4,0.4,3.2,1.1
				c0.8,0.7,1.2,1.7,1.2,3v22.3c1.5-2.5,3.5-4.4,6-5.7c2.5-1.3,5.3-2,8.6-2C484.3,70.4,489.5,76.3,489.5,88z"/>
			
				<linearGradient id="SVGID_00000039112001672077391910000002520445036224472228_" gradientUnits="userSpaceOnUse" x1="520.7" y1="112.9489" x2="520.7" y2="43.7335" gradientTransform="matrix(1 0 0 -1 0 170)">
				<stop  offset="0" style="stop-color:#5BAADB"/>
				<stop  offset="0.1283" style="stop-color:#5EA1DD"/>
				<stop  offset="0.3361" style="stop-color:#6589E1"/>
				<stop  offset="0.5974" style="stop-color:#7062E8"/>
				<stop  offset="0.8993" style="stop-color:#802DF1"/>
				<stop  offset="1" style="stop-color:#8619F5"/>
			</linearGradient>
			<path style="fill:url(#SVGID_00000039112001672077391910000002520445036224472228_);" d="M509.4,112.8c-3.2-1.8-5.7-4.5-7.5-7.9
				s-2.6-7.4-2.6-11.9c0-4.6,0.9-8.6,2.6-12s4.2-6,7.5-7.9c3.2-1.8,7-2.8,11.3-2.8s8,0.9,11.3,2.8c3.2,1.8,5.7,4.5,7.5,7.9
				s2.6,7.4,2.6,12c0,4.5-0.9,8.5-2.6,11.9c-1.8,3.4-4.2,6-7.5,7.9c-3.2,1.8-7,2.8-11.3,2.8C516.4,115.6,512.6,114.7,509.4,112.8z
				 M529.8,104.5c2.1-2.6,3.2-6.4,3.2-11.5c0-5-1.1-8.8-3.2-11.4c-2.1-2.6-5.2-4-9.1-4c-3.9,0-6.9,1.3-9.1,4
				c-2.1,2.6-3.2,6.5-3.2,11.4c0,5,1.1,8.9,3.2,11.5s5.2,3.9,9.1,3.9C524.6,108.4,527.7,107.1,529.8,104.5z"/>
			
				<linearGradient id="SVGID_00000147914373714210238370000008748425917549628307_" gradientUnits="userSpaceOnUse" x1="567.1501" y1="112.9489" x2="567.1501" y2="43.7335" gradientTransform="matrix(1 0 0 -1 0 170)">
				<stop  offset="0" style="stop-color:#5BAADB"/>
				<stop  offset="0.1283" style="stop-color:#5EA1DD"/>
				<stop  offset="0.3361" style="stop-color:#6589E1"/>
				<stop  offset="0.5974" style="stop-color:#7062E8"/>
				<stop  offset="0.8993" style="stop-color:#802DF1"/>
				<stop  offset="1" style="stop-color:#8619F5"/>
			</linearGradient>
			<path style="fill:url(#SVGID_00000147914373714210238370000008748425917549628307_);" d="M552.3,111.8c-1.1-0.7-1.8-1.3-2.3-2
				c-0.4-0.7-0.7-1.5-0.7-2.4s0.3-1.8,0.8-2.4c0.5-0.7,1.2-1,2-1s2,0.5,3.7,1.4c1.8,1,3.5,1.7,5.2,2.3c1.7,0.6,3.8,0.9,6.4,0.9
				c2.8,0,5.1-0.5,6.7-1.5c1.6-1,2.4-2.4,2.4-4.3c0-1.2-0.3-2.1-0.9-2.9c-0.6-0.7-1.7-1.3-3.3-1.9c-1.5-0.6-3.8-1.2-6.9-1.8
				c-5.2-1.1-9-2.7-11.3-4.6s-3.4-4.6-3.4-7.9c0-2.6,0.7-4.9,2.2-6.9s3.5-3.6,6.1-4.8c2.6-1.1,5.6-1.7,8.9-1.7
				c2.4,0,4.7,0.3,6.9,0.9c2.3,0.6,4.2,1.5,6,2.7c2,1.3,2.9,2.8,2.9,4.5c0,0.9-0.3,1.8-0.8,2.4c-0.6,0.7-1.2,1-2,1
				c-0.5,0-1.1-0.1-1.6-0.4c-0.5-0.2-1.2-0.6-2.1-1.2c-1.6-0.9-3.1-1.7-4.5-2.2s-3.1-0.8-5.2-0.8c-2.5,0-4.5,0.5-6,1.6
				s-2.3,2.5-2.3,4.4c0,1.7,0.7,3,2.1,3.9c1.4,0.9,4,1.8,7.9,2.6c4,0.8,7.1,1.8,9.4,2.9c2.3,1.1,3.9,2.4,4.9,4s1.5,3.6,1.5,6
				c0,3.9-1.6,7-4.9,9.3c-3.2,2.3-7.6,3.5-13,3.5C561.1,115.6,556.2,114.3,552.3,111.8z"/>
			
				<linearGradient id="SVGID_00000038393692782724062270000002933642489867051907_" gradientUnits="userSpaceOnUse" x1="603.65" y1="112.9489" x2="603.65" y2="43.7335" gradientTransform="matrix(1 0 0 -1 0 170)">
				<stop  offset="0" style="stop-color:#5BAADB"/>
				<stop  offset="0.1283" style="stop-color:#5EA1DD"/>
				<stop  offset="0.3361" style="stop-color:#6589E1"/>
				<stop  offset="0.5974" style="stop-color:#7062E8"/>
				<stop  offset="0.8993" style="stop-color:#802DF1"/>
				<stop  offset="1" style="stop-color:#8619F5"/>
			</linearGradient>
			<path style="fill:url(#SVGID_00000038393692782724062270000002933642489867051907_);" d="M618.6,109.6c0.6,0.6,0.8,1.4,0.8,2.4
				c0,1.2-0.5,2.1-1.4,2.7s-2.3,0.9-4.1,0.8l-2.4-0.2c-4.8-0.4-8.4-1.8-10.8-4.4c-2.4-2.6-3.6-6.4-3.6-11.4V78.4h-5.3
				c-2.6,0-3.9-1.2-3.9-3.5c0-1.1,0.3-1.9,1-2.5s1.6-0.9,2.9-0.9h5.3v-9.2c0-1.4,0.4-2.4,1.2-3.2s1.9-1.2,3.3-1.2s2.5,0.4,3.3,1.2
				s1.2,1.8,1.2,3.2v9.2h8.8c1.2,0,2.2,0.3,2.9,0.9s1,1.5,1,2.5c0,1.1-0.3,2-1,2.6s-1.6,0.9-2.9,0.9h-8.8V100c0,2.8,0.6,4.8,1.7,6.1
				c1.2,1.3,2.9,2,5.3,2.2l2.5,0.2C617.1,108.7,618.1,109,618.6,109.6z"/>
			
				<linearGradient id="SVGID_00000163047444513333096010000000079008067034060443_" gradientUnits="userSpaceOnUse" x1="641.0501" y1="112.9489" x2="641.0501" y2="43.7335" gradientTransform="matrix(1 0 0 -1 0 170)">
				<stop  offset="0" style="stop-color:#5BAADB"/>
				<stop  offset="0.1283" style="stop-color:#5EA1DD"/>
				<stop  offset="0.3361" style="stop-color:#6589E1"/>
				<stop  offset="0.5974" style="stop-color:#7062E8"/>
				<stop  offset="0.8993" style="stop-color:#802DF1"/>
				<stop  offset="1" style="stop-color:#8619F5"/>
			</linearGradient>
			<path style="fill:url(#SVGID_00000163047444513333096010000000079008067034060443_);" d="M626.2,111.8c-1.1-0.7-1.8-1.3-2.3-2
				c-0.4-0.7-0.7-1.5-0.7-2.4s0.3-1.8,0.8-2.4c0.5-0.7,1.2-1,2-1s2,0.5,3.7,1.4c1.8,1,3.5,1.7,5.2,2.3c1.7,0.6,3.8,0.9,6.4,0.9
				c2.8,0,5.1-0.5,6.7-1.5c1.6-1,2.4-2.4,2.4-4.3c0-1.2-0.3-2.1-0.9-2.9c-0.6-0.7-1.7-1.3-3.3-1.9c-1.5-0.6-3.8-1.2-6.9-1.8
				c-5.2-1.1-9-2.7-11.3-4.6s-3.4-4.6-3.4-7.9c0-2.6,0.7-4.9,2.2-6.9s3.5-3.6,6.1-4.8c2.6-1.1,5.6-1.7,8.9-1.7
				c2.4,0,4.7,0.3,6.9,0.9c2.3,0.6,4.2,1.5,6,2.7c2,1.3,2.9,2.8,2.9,4.5c0,0.9-0.3,1.8-0.8,2.4c-0.6,0.7-1.2,1-2,1
				c-0.5,0-1.1-0.1-1.6-0.4c-0.5-0.2-1.2-0.6-2.1-1.2c-1.6-0.9-3.1-1.7-4.5-2.2s-3.1-0.8-5.2-0.8c-2.5,0-4.5,0.5-6,1.6
				s-2.3,2.5-2.3,4.4c0,1.7,0.7,3,2.1,3.9c1.4,0.9,4,1.8,7.9,2.6c4,0.8,7.1,1.8,9.4,2.9c2.3,1.1,3.9,2.4,4.9,4s1.5,3.6,1.5,6
				c0,3.9-1.6,7-4.9,9.3c-3.2,2.3-7.6,3.5-13,3.5C635.1,115.6,630.1,114.3,626.2,111.8z"/>
		</g>
		<g>
			<path class="st6" d="M62.1,120.7h42.1L84.9,95.5c-0.9-1.1-2.6-1.1-3.4,0L62.1,120.7z"/>
			
				<linearGradient id="SVGID_00000170262739866501843580000014761312954554294431_" gradientUnits="userSpaceOnUse" x1="41.06" y1="115.218" x2="65.1068" y2="87.2886" gradientTransform="matrix(1 0 0 -1 0 170)">
				<stop  offset="0" style="stop-color:#5BAADB"/>
				<stop  offset="0.1283" style="stop-color:#5EA1DD"/>
				<stop  offset="0.3361" style="stop-color:#6589E1"/>
				<stop  offset="0.5974" style="stop-color:#7062E8"/>
				<stop  offset="0.8993" style="stop-color:#802DF1"/>
				<stop  offset="1" style="stop-color:#8619F5"/>
			</linearGradient>
			<path style="fill:url(#SVGID_00000170262739866501843580000014761312954554294431_);" d="M93.9,58.9c-6.1,2.9-26.3-2.4-37.2,7.5
				C45.6,76.5,47.2,99,34,104.3c-13.9,5.5-11.7-8.8-11.7-9.6l0,0c1.9-5.7,6-10.4,11.2-13.2c-1.4-3.1-2.1-6.7-1.6-10.4
				C33,62.9,39.6,56.2,47.8,55c4.4-0.6,8.5,0.3,12,2.2c7.1-6.6,16.5-10.6,26.9-10.6c1.5,0,3,0.1,4.4,0.3l0,0
				C91.7,46.9,105,53.6,93.9,58.9z"/>
			
				<linearGradient id="SVGID_00000103246798719461051780000002829363589742905765_" gradientUnits="userSpaceOnUse" x1="55.9021" y1="103.1092" x2="81.943" y2="68.2936" gradientTransform="matrix(1 0 0 -1 0 170)">
				<stop  offset="0" style="stop-color:#5BAADB"/>
				<stop  offset="0.1283" style="stop-color:#5EA1DD"/>
				<stop  offset="0.3361" style="stop-color:#6589E1"/>
				<stop  offset="0.5974" style="stop-color:#7062E8"/>
				<stop  offset="0.8993" style="stop-color:#802DF1"/>
				<stop  offset="1" style="stop-color:#8619F5"/>
			</linearGradient>
			<path style="fill:url(#SVGID_00000103246798719461051780000002829363589742905765_);" d="M116.1,76c-6.3,3.1-12.2-3.6-19.4-4.1
				c-7.9-0.5-15.1,5.8-19.5,10.9c-2.6,3-4.3,5.5-4.5,5.8c0,0,0,0,0,0.1l-18.8,24.5c-10.5,13.6-32.5,6.6-32.8-10.6v-0.4
				c0-2.7,0.4-5.2,1.3-7.6c0,0.9-2.2,15.2,11.7,9.6C47.2,99,45.6,76.5,56.7,66.4c10.9-9.9,31.1-4.6,37.2-7.5
				c11.1-5.3-2.2-12.1-2.8-12.2c11.6,1.3,21.7,7.6,28,16.7c0.1,0.3,0.1,0.6,0.2,0.9C120.3,69,120.4,73.9,116.1,76z"/>
			
				<linearGradient id="SVGID_00000101797754034219230530000016342256295093265044_" gradientUnits="userSpaceOnUse" x1="74.3633" y1="85.0843" x2="75.5428" y2="83.5074" gradientTransform="matrix(1 0 0 -1 0 170)">
				<stop  offset="0" style="stop-color:#7AE186"/>
				<stop  offset="1" style="stop-color:#8619F5"/>
			</linearGradient>
			<path style="fill:url(#SVGID_00000101797754034219230530000016342256295093265044_);" d="M77.2,82.8l-4.5,5.8
				C72.9,88.2,74.6,85.7,77.2,82.8z"/>
			
				<linearGradient id="SVGID_00000042012725772701800560000004953700134118967686_" gradientUnits="userSpaceOnUse" x1="92.8625" y1="100.2031" x2="131.8911" y2="48.0234" gradientTransform="matrix(1 0 0 -1 0 170)">
				<stop  offset="0" style="stop-color:#5BAADB"/>
				<stop  offset="0.1283" style="stop-color:#5EA1DD"/>
				<stop  offset="0.3361" style="stop-color:#6589E1"/>
				<stop  offset="0.5974" style="stop-color:#7062E8"/>
				<stop  offset="0.8993" style="stop-color:#802DF1"/>
				<stop  offset="1" style="stop-color:#8619F5"/>
			</linearGradient>
			<path style="fill:url(#SVGID_00000042012725772701800560000004953700134118967686_);" d="M145.5,102.2c0,1.1-0.1,2.1-0.2,3.2
				c-2.1,15.8-22.8,20.7-32.5,8.1L93.6,88.6c-5.3-6.7-15.5-6.7-20.9,0c0.2-0.4,1.9-2.9,4.5-5.8c4.4-5,11.6-11.4,19.5-10.9
				c7.2,0.5,13.1,7.2,19.4,4.1c4.3-2.1,4.3-7.1,3.3-11.7c-0.1-0.3-0.1-0.6-0.2-0.9c3.2,4.6,5.5,9.9,6.5,15.6
				C136.9,80.8,145.5,90.5,145.5,102.2z"/>
		</g>
	</g>
</g>
</svg>
